<svg width="149" height="106" viewBox="0 0 149 106" fill="none" xmlns="http://www.w3.org/2000/svg">
<rect width="149" height="106" fill="white"/>
<path d="M56.8324 75.9107L61.3184 87.3297H84.5642L55.2011 19.6313H32.3631L3 87.3297H26.2458L30.7318 75.9107M56.8324 75.9107L50.2636 59.19M56.8324 75.9107H65.8045L58.8715 59.19H50.2636M56.8324 75.9107H30.7318M50.2636 59.19L43.7821 42.6918M50.2636 59.19H37.3007M43.7821 42.6918L38.8883 30.2347H48.676L43.7821 42.6918ZM43.7821 42.6918L37.3007 59.19M37.3007 59.19L30.7318 75.9107M37.3007 59.19H28.6927L21.7598 75.9107H30.7318" stroke="black" stroke-width="3.64246"/>
<path d="M118.441 88.9609C112.991 88.9609 107.93 88.1207 103.259 86.4404C98.6524 84.6955 94.6298 82.2396 91.1911 79.0729C87.8174 75.9062 85.1897 72.1578 83.3081 67.8277C81.4266 63.4977 80.4858 58.7153 80.4858 53.4804C80.4858 48.2456 81.4266 43.4632 83.3081 39.1332C85.1897 34.8031 87.8174 31.0547 91.1911 27.888C94.6298 24.7212 98.6524 22.2977 103.259 20.6174C107.93 18.8725 112.991 18 118.441 18C125.124 18 131.028 19.1633 136.153 21.4899C141.344 23.8165 145.626 27.1771 149 31.5718L134.499 44.4649C132.488 41.9445 130.249 40.0056 127.784 38.6485C125.383 37.2267 122.658 36.5157 119.609 36.5157C117.208 36.5157 115.035 36.9035 113.088 37.679C111.142 38.4546 109.455 39.5855 108.028 41.072C106.665 42.5584 105.595 44.368 104.816 46.5007C104.038 48.5688 103.648 50.8953 103.648 53.4804C103.648 56.0655 104.038 58.4244 104.816 60.5571C105.595 62.6252 106.665 64.4025 108.028 65.8889C109.455 67.3753 111.142 68.5063 113.088 69.2818C115.035 70.0574 117.208 70.4451 119.609 70.4451C122.658 70.4451 125.383 69.7666 127.784 68.4094C130.249 66.9876 132.488 65.0164 134.499 62.496L149 75.3891C145.626 79.7192 141.344 83.0798 136.153 85.471C131.028 87.7976 125.124 88.9609 118.441 88.9609Z" fill="black"/>
</svg>
