<svg width="149" height="106" viewBox="0 0 149 106" fill="none" xmlns="http://www.w3.org/2000/svg">
<rect width="149" height="106" fill="white"/>
<path d="M55.0865 74.2028L59.427 85.2515H81.9189L53.5081 19.7488H31.4108L3 85.2515H25.4919L29.8324 74.2028M55.0865 74.2028L48.7307 58.0245M55.0865 74.2028H63.7676L57.0595 58.0245H48.7307M55.0865 74.2028H29.8324M48.7307 58.0245L42.4595 42.0613M48.7307 58.0245H36.1882M42.4595 42.0613L37.7243 30.0082H47.1946L42.4595 42.0613ZM42.4595 42.0613L36.1882 58.0245M36.1882 58.0245L29.8324 74.2028M36.1882 58.0245H27.8595L21.1514 74.2028H29.8324" stroke="black" stroke-width="3.15676"/>
<path d="M119.432 86.8296C114.159 86.8296 109.262 86.0167 104.743 84.3909C100.285 82.7026 96.3933 80.3264 93.0661 77.2623C89.8017 74.1983 87.2593 70.5715 85.4388 66.3819C83.6183 62.1923 82.708 57.5649 82.708 52.4999C82.708 47.4349 83.6183 42.8075 85.4388 38.6179C87.2593 34.4283 89.8017 30.8015 93.0661 27.7375C96.3933 24.6734 100.285 22.3285 104.743 20.7027C109.262 19.0143 114.159 18.1702 119.432 18.1702C125.898 18.1702 131.611 19.2957 136.57 21.5469C141.592 23.798 145.736 27.0496 149 31.3018L134.969 43.7768C133.023 41.338 130.858 39.4621 128.472 38.1489C126.149 36.7732 123.513 36.0854 120.562 36.0854C118.239 36.0854 116.136 36.4606 114.253 37.211C112.37 37.9613 110.738 39.0556 109.357 40.4939C108.038 41.9321 107.002 43.683 106.249 45.7465C105.496 47.7475 105.119 49.9986 105.119 52.4999C105.119 55.0011 105.496 57.2835 106.249 59.3471C107.002 61.3481 108.038 63.0677 109.357 64.5059C110.738 65.9441 112.37 67.0384 114.253 67.7888C116.136 68.5392 118.239 68.9144 120.562 68.9144C123.513 68.9144 126.149 68.2578 128.472 66.9446C130.858 65.569 133.023 63.6617 134.969 61.223L149 73.698C145.736 77.8876 141.592 81.1393 136.57 83.4529C131.611 85.7041 125.898 86.8296 119.432 86.8296Z" fill="black"/>
</svg>
